<?xml version="1.0" encoding="UTF-8"?>
<svg width="858px" height="858px" viewBox="0 0 858 858" version="1.1" xmlns="http://www.w3.org/2000/svg" xmlns:xlink="http://www.w3.org/1999/xlink">
    <!-- Generator: Sketch 63.1 (92452) - https://sketch.com -->
    <title>Group</title>
    <desc>Created with Sketch.</desc>
    <g id="Page-1" stroke="none" stroke-width="1" fill="none" fill-rule="evenodd">
        <g id="Group" fill="#000000" fill-rule="nonzero">
            <path d="M429,857.2 C371.2,857.2 315.1,845.9 262.3,823.5 C211.3,801.9 165.5,771.1 126.2,731.7 C86.9,692.3 56,646.6 34.4,595.6 C12.1,542.9 0.8,486.8 0.8,429 C0.8,371.2 12.1,315.1 34.5,262.3 C56.1,211.3 86.9,165.5 126.3,126.2 C165.7,86.9 211.4,56 262.4,34.4 C315.1,12.1 371.2,0.8 429,0.8 C486.8,0.8 542.9,12.1 595.7,34.5 C646.7,56.1 692.5,86.9 731.8,126.3 C771.1,165.7 802,211.4 823.6,262.4 C845.9,315.2 857.3,371.3 857.3,429.1 C857.3,486.9 846,543 823.6,595.8 C802,646.8 771.2,692.6 731.8,731.9 C692.4,771.2 646.7,802.1 595.7,823.7 C542.9,845.9 486.8,857.2 429,857.2 Z M429,30.8 C209.4,30.8 30.8,209.4 30.8,429 C30.8,648.6 209.4,827.2 429,827.2 C648.6,827.2 827.2,648.6 827.2,429 C827.2,209.4 648.6,30.8 429,30.8 Z" id="Shape"></path>
            <polygon id="Path" points="506.2 636.4 298.9 429 506.2 221.6 527.4 242.8 341.3 429 527.4 615.2"></polygon>
        </g>
    </g>
</svg>