<svg xmlns="http://www.w3.org/2000/svg" xmlns:xlink="http://www.w3.org/1999/xlink" version="1.1" x="0px" y="0px" viewBox="0 0 1024 1280" style="enable-background:new 0 0 1024 1024;" xml:space="preserve"><g><path d="M512,940.2c-57.8,0-113.9-11.3-166.7-33.7c-51-21.6-96.8-52.4-136.1-91.8s-70.2-85.1-91.8-136.1   C95.1,625.9,83.8,569.8,83.8,512s11.3-113.9,33.7-166.7c21.6-51,52.4-96.8,91.8-136.1s85.1-70.2,136.1-91.8   C398.1,95.1,454.2,83.8,512,83.8s113.9,11.3,166.7,33.7c51,21.6,96.8,52.4,136.1,91.8s70.2,85.1,91.8,136.1   c22.3,52.8,33.7,108.9,33.7,166.7s-11.3,113.9-33.7,166.7c-21.6,51-52.4,96.8-91.8,136.1s-85.1,70.2-136.1,91.8   C625.9,928.9,569.8,940.2,512,940.2z M512,113.8c-219.6,0-398.2,178.6-398.2,398.2S292.4,910.2,512,910.2S910.2,731.6,910.2,512   S731.6,113.8,512,113.8z"/><polygon points="589.2,719.4 381.9,512 589.2,304.6 610.4,325.8 424.3,512 610.4,698.2  "/></g><text x="0" y="1039" fill="#000000" font-size="5px" font-weight="bold" font-family="'Helvetica Neue', Helvetica, Arial-Unicode, Arial, Sans-serif">Created by IconPai</text><text x="0" y="1044" fill="#000000" font-size="5px" font-weight="bold" font-family="'Helvetica Neue', Helvetica, Arial-Unicode, Arial, Sans-serif">from the Noun Project</text></svg>